<svg id="Capa_1" data-name="Capa 1" xmlns="http://www.w3.org/2000/svg" viewBox="0 0 425.01 166.79"><defs><style>.cls-1{fill:#dad9ca;}.cls-2{fill:#373d3d;}.cls-3{fill:#c9a18d;}</style></defs><rect class="cls-1" x="62.3" y="14.22" width="6.79" height="120.55" transform="translate(-30.97 102.18) rotate(-66.11)"/><path class="cls-2" d="M12.47,48.3l108.39,48-1.94,4.39-108.4-48,2-4.39m-1-2.63-.81,1.82L8.7,51.88l-.81,1.83,1.82.81,108.4,48,1.83.81.81-1.83,1.94-4.38.81-1.83-1.83-.81-108.39-48-1.83-.81Z" transform="translate(-1.94 -2.21)"/><rect class="cls-1" x="53.42" y="29.83" width="6.53" height="114" transform="translate(-47.59 101.31) rotate(-66.13)"/><path class="cls-2" d="M6.41,62.07,108.8,107.45,107,111.59,4.58,66.21l1.83-4.14m-1-2.64-.81,1.83L2.75,65.4l-.81,1.83L3.76,68l102.4,45.38,1.83.81.81-1.83,1.83-4.15.81-1.82-1.83-.81L7.22,60.24l-1.83-.81Z" transform="translate(-1.94 -2.21)"/><rect class="cls-1" x="72.01" y="-10.94" width="6.91" height="114.73" transform="translate(0.53 94.42) rotate(-66.11)"/><path class="cls-2" d="M24.93,21.35,128,67l-2,4.49L22.94,25.84l2-4.49m-1-2.64-.81,1.83-2,4.49-.81,1.83,1.83.81L125.2,73.32l1.83.81.81-1.83,2-4.49.81-1.83-1.83-.81L25.74,19.52l-1.83-.81Z" transform="translate(-1.94 -2.21)"/><rect class="cls-1" x="76.76" y="-23.55" width="6.74" height="111.91" transform="translate(16.12 90.35) rotate(-66.11)"/><path class="cls-2" d="M30.85,8l100.49,44.5-1.92,4.34L28.93,12.32,30.85,8m-1-2.64L29,7.18,27.1,11.51l-.81,1.83,1.83.81,100.49,44.5,1.83.81.81-1.82,1.92-4.34.81-1.83-1.83-.81L31.66,6.16l-1.83-.81Z" transform="translate(-1.94 -2.21)"/><rect class="cls-1" x="70.55" y="-0.91" width="7" height="125.65" transform="translate(-14.49 102.34) rotate(-66.11)"/><path class="cls-2" d="M18.54,34.59,131.59,84.66l-2,4.58L16.51,39.17l2-4.58m-1-2.63-.81,1.83-2,4.57-.81,1.83L15.7,41,128.76,91.07l1.83.81.81-1.83,2-4.58.81-1.82-1.83-.81-113-50.07L17.52,32Z" transform="translate(-1.94 -2.21)"/><path class="cls-3" d="M26.18,158.32a8.82,8.82,0,0,1-2.81-.42,6.5,6.5,0,0,1-4-4.32c-1.24-3.63-.49-8.46,1-10.69A6.33,6.33,0,0,1,21,142a6.49,6.49,0,1,1,5.58,10,1.17,1.17,0,0,0,.3.21l.29.15,0,0,.24,0c.65,0,2.57-.3,6.39-3,10.63-7.59,17-25.48,18.82-31a37.81,37.81,0,0,1-11.08-7.14c-6.29-6.12-9.47-14.21-9.47-24.07,0-13,4.77-24.3,14.19-33.72A46.15,46.15,0,0,1,80,39.4c8.7,0,15.57,2.09,21,6.4,6.21-4.73,12.94-10,20-15.73V27.8c0-15.65,4-23.59,12-23.59a8,8,0,0,1,5.62,2.41,7.51,7.51,0,0,1,2.67,5.54c0,5.09-4.45,11.52-13.61,19.63a179.6,179.6,0,0,0,4.68,17.87c2.43,8.15,3.66,15,3.66,20.3,0,15.28-6.9,28.23-20.52,38.49a70,70,0,0,1-42.17,13.83c-1,0-2.24,0-3.66-.16l-5.06-.44H64.6c-1.26-.19-2.53-.44-3.85-.75-5,12.51-11,22.23-18,28.91C37.15,155.22,31.11,158.32,26.18,158.32Zm36.25-43.76a17.88,17.88,0,0,0,4.54.65c6.38-.14,13.13-2.06,20.63-5.89a81.68,81.68,0,0,0,18.75-13.11c4-3.81,6.69-7.21,8.06-10.11A69.4,69.4,0,0,0,122.55,54a9.57,9.57,0,0,1-.14-1.14c-.07-.79-.15-2-.26-3.55-.15-2.23-.39-6.13-.75-12.38-2.67,2.09-5.82,4.63-9.65,7.72L105.19,50A21.48,21.48,0,0,1,110.06,64a28,28,0,0,1-8.77,20.81,29.1,29.1,0,0,1-21.11,8.73,22,22,0,0,1-9.76-2c-1.85,4.48-3,8.22-4.16,11.84-.45,1.45-.89,2.86-1.36,4.27-.6,1.79-1.14,3.18-1.57,4.3A18.68,18.68,0,0,0,62.43,114.56ZM79.16,45.78c-10.07,0-19.36,4.58-27.59,13.62-8.12,8.77-12.23,18.44-12.23,28.75,0,8,2.51,14.87,7.07,19.44a7,7,0,0,1,.55.6c.41.48.83,1,4.93,3a6.12,6.12,0,0,0,2.66.78c.15-.41.34-1,.55-1.62a103.35,103.35,0,0,1,5.4-11.88c1.8-3.59,3.65-7.3,5.09-10.74a14.45,14.45,0,0,1-3.73-10A16.81,16.81,0,0,1,63,72.33c.52-1.45,1.74-4.88,4.6-4.88a2.85,2.85,0,0,1,2.09.92l.61.61h1.19l-1.67,2.33a3.67,3.67,0,0,1-.61.86,9.58,9.58,0,0,0-2,6,8.57,8.57,0,0,0,.9,3.91c5.27-10.17,14.28-20.68,26.8-31.29A25.24,25.24,0,0,0,79.16,45.78Zm-6.43,41a13.75,13.75,0,0,0,6.77,1.61c5.51,0,10.74-2.59,15.54-7.7s7.28-10.53,7.28-16A16.16,16.16,0,0,0,99.11,55C86.91,65.52,78,76.2,72.73,86.75ZM133.39,9.91c-1.57,0-6.33,0-6.33,14.32v.36c7.57-7.32,8.75-11.43,8.75-13.28C135.81,10.65,135.81,9.91,133.39,9.91Z" transform="translate(-1.94 -2.21)"/><path class="cls-2" d="M133.05,6.21a6.09,6.09,0,0,1,4.25,1.87,5.58,5.58,0,0,1,2,4.08q0,6.77-13.32,18.47a1.08,1.08,0,0,0-.35,1,176.85,176.85,0,0,0,4.83,18.61c2.38,8,3.57,14.62,3.57,19.72,0,14.79-6.63,27-19.72,36.89a67.64,67.64,0,0,1-41,13.43c-1.13,0-2.33-.07-3.51-.15l-5-.44a50.92,50.92,0,0,1-5.37-1.13c-11.19,29.21-26.08,37.76-33.35,37.76A7.06,7.06,0,0,1,24,156c-4.24-1.41-3.75-9.37-2-12a4.82,4.82,0,0,1,.61-.73A4.49,4.49,0,1,1,26.5,150a4.43,4.43,0,0,1-2.95-1.13c.11,2.14.86,4.34,2.45,5.13a2.07,2.07,0,0,0,1.45.4c1.32,0,3.66-.62,7.55-3.4,13.35-9.53,20.1-33.79,20.1-33.79l.66.2A36.36,36.36,0,0,1,43,109.74c-6-5.78-8.84-13.43-8.84-22.61,0-12.41,4.59-23.29,13.6-32.3A44.18,44.18,0,0,1,80,41.4c8.32,0,15.07,2,20.26,6.4a1.08,1.08,0,0,0,.7.26,1.06,1.06,0,0,0,.63-.21c4.86-3.69,12-9.19,21-16.5a1.05,1.05,0,0,0,.41-.83V27.8c0-14.45,3.4-21.59,10-21.59m-6.88,21.57a1.08,1.08,0,0,0,.73-.29c7.36-6.78,10.91-12.22,10.91-16.18,0-2.21-1.36-3.4-4.42-3.4-5.61,0-8.33,5.44-8.33,16.32,0,.82,0,1.65,0,2.5a1.08,1.08,0,0,0,1.08,1.05m-46,63.77a19.48,19.48,0,0,1-9.71-2.26,1,1,0,0,0-.51-.14,1.09,1.09,0,0,0-1,.66c-2.9,6.84-4.24,12-6,17.19-2,6-3.41,7.59-2,9,1,1,5.36,1.21,6,1.21h0c6.74-.14,13.81-2.18,21.51-6.11a83.11,83.11,0,0,0,19.21-13.43c4.08-3.91,7-7.48,8.5-10.71a71.66,71.66,0,0,0,8.33-33.32h0a.67.67,0,0,1,0,.25c-.08,0-.53-6.23-1.23-18.8a1.08,1.08,0,0,0-1.08-1,1.06,1.06,0,0,0-.64.22c-4.47,3.44-10.49,8.38-18.38,14.7a1.09,1.09,0,0,0-.12,1.58,19.36,19.36,0,0,1,5,13.44A25.94,25.94,0,0,1,99.9,83.39a27.23,27.23,0,0,1-19.72,8.16M55,114c1,0,1,0,2-3,1.93-5.8,7.45-15.16,10.67-23a1.09,1.09,0,0,0-.24-1.16,12.59,12.59,0,0,1-3.57-9,15,15,0,0,1,1-4.76c.85-2.38,1.7-3.57,2.72-3.57a.88.88,0,0,1,.68.34c-.17.51-.34,1-.85,1.19h.17a11.63,11.63,0,0,0-2.38,7.14,10.71,10.71,0,0,0,2.12,6.47,1,1,0,0,0,.84.43,1.12,1.12,0,0,0,1-.62q7.72-16,27.9-32.85a1.07,1.07,0,0,0,0-1.63c-4.78-4.05-10.76-6.14-17.94-6.14q-16.06,0-29.07,14.28Q37.34,71.83,37.34,88.15c0,7.48,2.13,15.32,7.66,20.85,1,1,.56,1.28,6,4a8,8,0,0,0,4,1M79.5,90.36c6,0,11.73-2.72,17-8.33,5.1-5.44,7.82-11.22,7.82-17.34A18.38,18.38,0,0,0,100.09,53a1.06,1.06,0,0,0-.83-.39,1.11,1.11,0,0,0-.71.26c-13.32,11.38-22.61,22.75-28,33.82A1,1,0,0,0,70.91,88a15.46,15.46,0,0,0,8.59,2.37M133.05,2.21c-3.44,0-8.16,1.33-11.13,7.68-2,4.18-2.9,10-2.9,17.91v1.31c-6.34,5.1-12.4,9.86-18,14.19-5.54-3.92-12.58-5.9-21-5.9A48.1,48.1,0,0,0,44.88,52c-9.8,9.8-14.77,21.62-14.77,35.13,0,10.42,3.38,19,10,25.48l0,0,0,0a38.9,38.9,0,0,0,10,6.77c-2.09,6.1-7.26,19.18-15.21,26.44,0-.12,0-.24,0-.36a8.49,8.49,0,0,0-15.57-4.69,8.27,8.27,0,0,0-.76,1c-2,3-2.55,8.58-1.22,12.45a8.48,8.48,0,0,0,5.29,5.56,10.7,10.7,0,0,0,3.44.53c5.44,0,12-3.3,18-9,6.88-6.6,12.86-16,17.83-28,.78.15,1.55.29,2.31.41l.13,0h.13l5,.43h.06c1.46.1,2.7.16,3.8.16a71.86,71.86,0,0,0,43.33-14.21h0l0,0C130.9,99.39,138.07,85.9,138.07,70c0-5.52-1.26-12.54-3.74-20.86-2.63-8.66-3.86-13.88-4.42-16.58,9.15-8.26,13.43-14.76,13.43-20.36a9.48,9.48,0,0,0-3.31-7,9.94,9.94,0,0,0-7-2.95Zm-3.76,17.14c.42-4,1.54-7.44,4.1-7.44h.36c-.21,1.17-1.1,3.54-4.46,7.43ZM108,50.3,113,46.23c2.47-2,4.66-3.76,6.62-5.32.24,4.08.41,6.83.53,8.56s.19,2.79.26,3.58c0,.44.07.77.09,1a2.19,2.19,0,0,0,0,.27,67.37,67.37,0,0,1-7.89,30.81l0,.06,0,.06c-1.26,2.68-3.84,5.89-7.65,9.54a79.88,79.88,0,0,1-18.26,12.76C79.48,111.22,73,113.07,67,113.21c-.43,0-1.18-.07-1.91-.15l.15-.41c.45-1.14,1-2.56,1.6-4.39.48-1.43.92-2.82,1.38-4.29,1-3.07,2-6.21,3.35-9.82a25.37,25.37,0,0,0,8.66,1.4,31.4,31.4,0,0,0,22.5-9.29A29.92,29.92,0,0,0,112.06,64,23.62,23.62,0,0,0,108,50.3ZM53.24,109.63l-.45-.21c-3.74-1.87-4.1-2.28-4.31-2.53s-.36-.43-.65-.72c-5.65-5.64-6.49-13.71-6.49-18,0-9.93,3.82-18.88,11.68-27.37,8-8.76,16.52-13,26.14-13a23.76,23.76,0,0,1,12.48,3.14c-9.4,8.2-16.73,16.36-21.9,24.36a9.4,9.4,0,0,1,1-1.81,5.44,5.44,0,0,0,.79-1.11L75.37,67H71.13l0,0a4.85,4.85,0,0,0-3.51-1.51c-4.27,0-5.88,4.52-6.49,6.22a19,19,0,0,0-1.25,6.11,16.72,16.72,0,0,0,3.41,10.31c-1.33,3.06-3,6.33-4.56,9.5a106,106,0,0,0-5.47,12ZM75.49,85.77c5-9.2,12.78-18.51,23.18-27.75a13.74,13.74,0,0,1,1.65,6.67c0,5-2.2,9.77-6.74,14.6s-9.14,7.07-14.08,7.07a13,13,0,0,1-4-.59Z" transform="translate(-1.94 -2.21)"/><path class="cls-3" d="M308.36,50.37c-4.65,0-7.44-2.72-7.44-7.27,0-5,2.65-7.78,7.27-7.78s7.44,2.72,7.44,7.27C315.63,47.53,313,50.37,308.36,50.37Z" transform="translate(-1.94 -2.21)"/><path class="cls-2" d="M308.19,37.32c3.57,0,5.44,1.87,5.44,5.27,0,3.74-1.7,5.78-5.27,5.78s-5.44-1.87-5.44-5.27c0-3.74,1.7-5.78,5.27-5.78m0-4c-5.71,0-9.27,3.75-9.27,9.78,0,5.63,3.71,9.27,9.44,9.27s9.27-3.75,9.27-9.78c0-5.63-3.7-9.27-9.44-9.27Z" transform="translate(-1.94 -2.21)"/><path class="cls-3" d="M313.4,167l-.53,0c-13.45-.67-14.5-18.48-14.5-23.92,0-9.59,1.79-21,5.33-34.08a29.28,29.28,0,0,1-4.4,3.76,19.17,19.17,0,0,1-11,3.93c-8.52,0-13.22-5.12-13.22-14.41,0-.79,0-1.59.09-2.39a40.86,40.86,0,0,1-16.65,10.78l-2.1,8.41c-4,16.17-13.51,27.18-27.49,31.84a36.48,36.48,0,0,1-11.34,2.15c-9.24,0-11.18-4.51-11.18-8.29,0-6.44,6.29-13.77,19.25-22.41,4-2.66,8.06-5.16,12.26-7.47a16.35,16.35,0,0,1-3.67.43c-5.8,0-12.7-2.78-12.88-15.93a91.3,91.3,0,0,1-6.62,7.35c-5.92,5.92-11.82,8.92-17.56,8.92-7.87,0-12.2-3.91-12.2-11,0-5.11,2-11,5.9-17.37,1.25-2.14,4.78-7.07,10.48-14.61,4.83-6.37,5.21-8.75,5.21-9.33,0-.31,0-.89-2.76-.89-3.58,0-8.33.25-11.6.42a94.07,94.07,0,0,1-3.7,12.55,90.06,90.06,0,0,1-5.84,12.68c-3.4,6.53-7.33,13.49-14.41,19.9a29.2,29.2,0,0,1-20,8.68c-15,0-16.79-11.33-16.79-19.85S135,79.25,142.05,70.1c7.6-9.77,15.74-14.72,24.2-14.72,9.28,0,10.67,5,10.67,7.95,0,5.4-2.89,11-8.58,16.71-7.46,7.63-15.52,11.71-24,12.11a26.62,26.62,0,0,0-1.46,8.58c0,6.79,2.24,10.24,6.67,10.24,4.89,0,11.29-3.12,15.92-7.75,4.24-4.23,9-11,13.29-19.19a90.11,90.11,0,0,0,4.61-10.34,83.8,83.8,0,0,0,3.46-12A10.37,10.37,0,0,1,183,53.13c0-7,4.25-7.78,6.08-7.78,1.47,0,4.89.71,4.89,7.27a25.8,25.8,0,0,1-.68,4.82c3.64-.21,9.83-.53,15-.53,9.28,0,10.67,4.55,10.67,7.27s-1.44,8.11-13.85,24.33c-.36.53-.81,1.16-1.27,1.81-3.64,5.12-8.17,11.5-8.17,17.55,0,2.25.87,2.25,1.57,2.25,4.54,0,8.95-2.47,14.73-8.26A74.28,74.28,0,0,0,223,87.94a52.45,52.45,0,0,1,9-17c7.67-10,16.16-15.06,25.22-15.06,4.26,0,9.24,1.6,10.52,8.62C272.31,56,276.49,52,280.65,52c2.6,0,4.22,1.55,4.22,4,0,1.47-.83,3.36-4.74,4a10.26,10.26,0,0,0-4.76,1.89c-3.58,3.78-6.95,11-10,21.51-1.87,7-3.6,14-5.35,21.17,7.4-3.38,13.57-9.33,18.36-17.72.67-1.59,1.38-3.1,2.16-4.59l13.3-26.06h2.8l.44.65a4.69,4.69,0,0,0,.53,0c1,0,3.23-.46,7.3-3.51l1.39-1,2.6,2.6L293.82,84.3c-7.26,13.93-8.79,20.32-8.79,23.23,0,1.47.38,3.44,3.61,3.44a13.73,13.73,0,0,0,7.51-2.86c6.17-4.77,10.26-12.13,13.92-19.26,1.12-3.16,2.32-6.39,3.57-9.59,13.9-35.1,28-57.41,43.2-68.22,5.24-3.79,10-5.64,14.59-5.64,8.26,0,10,5.06,10,9.31,0,14.52-18.42,38.62-56.31,73.67q-2.73,7-5,13.39a5.82,5.82,0,0,1,1.35-.15c2.16,0,5.3.93,8.13,5.32h.87c6.11,0,10.59-1.92,16-6.85a38.57,38.57,0,0,0,5.86-6.61,51.28,51.28,0,0,1,4-8.39c1.22-2,5.09-7.77,10.62-15.77,4.4-6.39,5.2-9.27,5.26-10.46h-.21a4.44,4.44,0,0,0-2.71,1l-.09.06a3.21,3.21,0,0,0-1.52,1.9l-.1.63-1.38,1.38h-1.81l-2-1,.18-1.4c.25-2,1.49-3.85,3.69-5.45a15.39,15.39,0,0,1,5.44-2.53l.29,0a27.17,27.17,0,0,1,3.78-.35c7.48,0,8.29,4.84,8.29,6.93,0,4.92-3.85,12.54-11.78,23.29-6.84,9.61-10.32,17.51-10.32,23.46,0,3.27,1.41,3.27,2.25,3.27,1.33,0,6.87-1.82,22.12-25.27,9.58-14.88,17.7-24.78,24.14-29.43,2.18-1.7,5.4-3.78,8-3.78a3.59,3.59,0,0,1,3.87,3.87c0,1.28-.71,3.65-5.48,5.14C411,62.19,406.22,66.29,402.22,73a55.19,55.19,0,0,0-6.71,19.17c-.56,2.81-1,5.67-1.37,8.43-.22,1.51-.44,3-.68,4.5-.51,2.68-1.1,5.54-2,8.79a65.3,65.3,0,0,0,28.3-29.7,3,3,0,0,1,2.65-2,2.46,2.46,0,0,1,2.07,1.07,3.11,3.11,0,0,1,.13,3l-.06.12c-7.67,16-19.59,27.7-35.44,34.65-7.08,17.43-15.5,24.68-25.95,30.18a35.15,35.15,0,0,1-16.91,4.31c-10.17,0-11.69-5.94-11.69-9.48,0-6.39,5.05-12.25,15-17.42,2.29-1.23,7-2.68,15.51-5.08,5.23-1.31,9.07-2.39,12.09-3.4.3-.78.63-1.61,1-2.5,1-2.62,2.32-5.88,3.59-9.79.45-1.29.94-2.87,1.5-4.69.63-2.06,1.4-4.57,2.36-7.43a110.3,110.3,0,0,1-6.56,9.11c-6,7.22-11.57,10.9-16.65,10.9a12.25,12.25,0,0,1-8.65-3.4,3.65,3.65,0,0,1-.27-.3,13.56,13.56,0,0,1-3.1-8.26c-5.23,4.93-11,7.71-17.21,8.29,1.82,3.79,2.84,9.18,2.84,15.1C336,143.49,328,167,313.4,167Zm4.4-58.57c-6.07,18.18-9.14,32.52-9.14,42.79,0,10.07,3.72,10.07,5.31,10.07,3.49,0,7.11-3.25,10.19-9.13a61.18,61.18,0,0,0,6-20.72,38.81,38.81,0,0,0,.16-4.36c0-7.87-1.87-13.2-3.69-15C321.38,111.77,318.89,110.23,317.8,108.43Zm34.42,26.41a29,29,0,0,0-7,5.5c-2.5,2.66-3.71,4.93-3.71,7,0,.75,0,2.76,5.82,2.76,10.59,0,19.57-7.5,26.7-22.3-2.51.84-5.39,1.75-8.62,2.59l-2.45.79C360.05,132.07,356.49,133.21,352.22,134.84Zm-103.05-20c-14.4,7-25.72,14.87-33.68,23.57-2.33,2.48-3.55,4.76-3.55,6.64,0,.64,0,2.59,5.31,2.59,7.89,0,17.1-8.27,27.37-24.57C245.51,121.68,247.19,118.83,249.17,114.89Zm4.22-11.61a42.23,42.23,0,0,1-7,7.25q2.69-1.27,5.42-2.45C252.32,106.63,252.84,105.06,253.39,103.28Zm4.19-41.69c-2.87.68-6.59,3.94-10.51,9.22a58,58,0,0,0-8.25,13.67c-3.74,8.68-5.63,15.9-5.63,21.52,0,4,1.43,4,1.91,4,4.06,0,9.08-4,14.53-11.42a84.55,84.55,0,0,0,10.46-18.07,38,38,0,0,0,2.58-12.71c0-6.16-2.76-6.16-3.95-6.16Zm-88.1,0c-2.48,0-6.93,1.87-14.08,10.81a63.11,63.11,0,0,0-9.25,14.32c4.73-.86,10.08-3.77,15.89-8.67v-.18l.71-.6a28.84,28.84,0,0,0,5.7-7c2-3.14,3.11-5.88,3.11-8C171.56,61.66,170.1,61.59,169.48,61.59ZM372.62,10.76c-4.86,0-13.48,5.36-27,30.89A314.15,314.15,0,0,0,329.38,77.2c30.75-29.59,46.34-50.72,46.34-62.83C375.72,11.36,374.54,10.76,372.62,10.76Z" transform="translate(-1.94 -2.21)"/><path class="cls-2" d="M371.43,7.4c5.44,0,8,2.38,8,7.31q0,20.66-56.27,72.76h.17c-11.05,28.22-16.66,49.47-16.66,63.75,0,8.5,2.55,12.07,7.31,12.07,9.35,0,16.49-16.66,18.19-31.62a41.43,41.43,0,0,0,.17-4.59c0-7.58-1.76-14.37-4.65-16.79a1.06,1.06,0,0,0-.64-.23c-5.37-.22-8-1.74-8-4.4,0-1.36.85-2,2.38-2,2.43,0,4.7,1.54,6.68,4.77a1.1,1.1,0,0,0,.87.53l1.45,0c7.19,0,12.06-2.54,17.35-7.37a41.47,41.47,0,0,0,6.3-7.15,49.07,49.07,0,0,1,3.9-8.32c1-1.7,4.42-6.8,10.54-15.64q5.61-8.16,5.61-11.73c0-1.36-.68-1.87-2.21-1.87A6.42,6.42,0,0,0,368,58.23a5,5,0,0,0-2.38,3.23l-.34.34h-.51l-.34-.17c.17-1.36,1-2.72,2.89-4.08a13.09,13.09,0,0,1,4.7-2.2l.12,0a24.51,24.51,0,0,1,3.51-.33c4.25,0,6.29,1.7,6.29,4.93,0,4.42-3.74,11.73-11.39,22.1-7.14,10-10.71,18.19-10.71,24.65,0,3.57,1.53,5.27,4.25,5.27,4.42,0,12.41-8.67,23.8-26.18,9.52-14.79,17.51-24.48,23.63-28.9,3.06-2.38,5.44-3.4,6.8-3.4a1.63,1.63,0,0,1,1.87,1.87c0,1.19-1.36,2.38-4.08,3.23-6.29,1.87-11.39,6.29-15.64,13.43a57.33,57.33,0,0,0-7,19.89c-.85,4.25-1.36,8.67-2,12.92A106.7,106.7,0,0,1,389,115.4a1.07,1.07,0,0,0,1,1.38,1.05,1.05,0,0,0,.48-.11,66.92,66.92,0,0,0,31.09-31.58c.34-.68.68-.85.85-.85.51,0,.68.51.34,1.36-7.42,15.51-19,27-34.79,33.83a1,1,0,0,0-.56.57c-5.58,13.88-12,22.61-25.17,29.52a33.35,33.35,0,0,1-16,4.08c-6.46,0-9.69-2.55-9.69-7.48,0-5.61,4.76-10.88,13.94-15.64,2.21-1.19,7.31-2.72,15.13-4.93,5.19-1.3,9.3-2.44,12.62-3.58a1,1,0,0,0,.64-.63c1.2-3.17,3-7.29,4.76-12.79,1-2.89,2.21-7.31,4.25-13.26q1.09-3.21,2.67-6.8a1.08,1.08,0,0,0-1-1.52,1,1,0,0,0-.86.49l-.12.18c-5.27,8.16-9,13.6-11.05,16-5.61,6.8-10.71,10.2-15.13,10.2a10.16,10.16,0,0,1-7.25-2.83l-.12-.13a11.55,11.55,0,0,1-2.66-7.41,24.53,24.53,0,0,1,.66-5.43c-6.23,7.75-13.28,11.92-21.4,12.23a1.06,1.06,0,0,0-.87,1.62c2,3.42,3.25,9,3.25,15.38C334,143.88,325.9,165,313.4,165H313c-10.2-.51-12.58-13.26-12.58-21.93q0-18.14,8.5-44.46c-2.94,5-6.35,9.48-10.71,12.5a17.45,17.45,0,0,1-9.86,3.57c-7.48,0-11.22-4.42-11.22-12.41a34.4,34.4,0,0,1,1.37-9.42c-5,6.87-12.18,13.4-21,16a1.06,1.06,0,0,0-.73.76l-2.24,8.93c-3.91,15.81-12.92,26-26.18,30.43a34.5,34.5,0,0,1-10.7,2c-6.13,0-9.18-2-9.18-6.29,0-5.61,6.12-12.58,18.36-20.74A158.12,158.12,0,0,1,253,109.75a1,1,0,0,0,.58-.63c.68-2,1.63-4.92,2.74-8.7,0,0,0,0,0-.06.1-.42.26-1,.48-1.81a1.07,1.07,0,0,0-1-1.38,1,1,0,0,0-.89.5q-10.17,15.63-20.65,15.64c-7.14,0-10.88-4.76-10.88-14.45a35.29,35.29,0,0,1,.57-6.29,90.1,90.1,0,0,1-10.6,12.75c-5.44,5.44-10.88,8.33-16.15,8.33-6.8,0-10.2-3.06-10.2-9q0-7.14,5.61-16.32c1.19-2,4.59-6.8,10.37-14.45,3.74-4.93,5.61-8.5,5.61-10.54s-1.53-2.89-4.76-2.89c-3.91,0-9.11.28-12.43.46a1.08,1.08,0,0,0-1,.87,91.59,91.59,0,0,1-3.75,12.95,89.7,89.7,0,0,1-5.72,12.4c-3.61,6.94-7.44,13.45-14,19.39-4.42,4.42-11.22,8.16-18.7,8.16-11,0-14.79-6.46-14.79-17.85q0-12.24,10.2-25.5c7.14-9.18,14.79-13.94,22.61-13.94,5.78,0,8.67,2,8.67,5.95,0,4.76-2.55,9.86-8,15.3C159.5,86.22,151.76,90,143.69,90.18a1.07,1.07,0,0,0-1,.7,28.65,28.65,0,0,0-1.78,9.85c0,7.65,2.89,12.24,8.67,12.24,5.95,0,12.75-3.74,17.34-8.33,3.83-3.84,8.64-10.29,13.64-19.67a92.74,92.74,0,0,0,4.72-10.59,81.38,81.38,0,0,0,3.65-12.93,1.07,1.07,0,0,0-.46-1A8.41,8.41,0,0,1,185,53.13c0-3.74,1.36-5.78,4.08-5.78,1.87,0,2.89,1.87,2.89,5.27A30.72,30.72,0,0,1,191,58.2a1.08,1.08,0,0,0,1,1.31h.06c3.68-.21,10.47-.6,16.11-.6s8.67,1.87,8.67,5.27c0,3.74-4.59,11.56-13.43,23.12-3.91,5.61-9.86,13.09-9.86,20.57,0,2,.68,4.25,3.57,4.25,5.27,0,10.2-2.89,16.15-8.84a76.44,76.44,0,0,0,11.49-14.53,50.16,50.16,0,0,1,8.74-16.58c7.3-9.52,15.13-14.28,23.63-14.28,5.94,0,8.84,3.4,8.84,10.37a30.88,30.88,0,0,1-.51,5.44C271.3,60.44,276.4,54,280.65,54c1.53,0,2.22.68,2.22,2,0,1-1,1.7-3.07,2a12.46,12.46,0,0,0-5.71,2.32l-.12.12c-3.72,3.93-7.27,11.22-10.49,22.38-2,7.68-3.93,15.35-5.81,23a1.08,1.08,0,0,0,1.05,1.33,1.22,1.22,0,0,0,.41-.07C268,103.68,275,97,280.22,87.77c.62-1.5,1.32-3,2.13-4.55l12.75-25h.51c.34.51,1,.68,2,.68,2.21,0,5.1-1.36,8.5-3.91l.34.34L292,83.39c-6.12,11.73-9,19.72-9,24.14,0,4.08,2.72,5.44,5.61,5.44,3.06,0,6.29-1.53,8.67-3.23,6.85-5.3,11.24-13.54,14.6-20.1q1.66-4.71,3.59-9.65Q335.9,28.48,358,12.67c4.93-3.57,9.35-5.27,13.43-5.27M327.08,81.76a1,1,0,0,0,.73-.3c33.33-31.66,49.91-53.92,49.91-67.09q0-5.61-5.1-5.61c-7.82,0-17.51,10.71-28.73,32a316,316,0,0,0-17.83,39.6,1.07,1.07,0,0,0,1,1.44M235.1,112c4.76,0,10.19-4.08,16.15-12.24A87.52,87.52,0,0,0,262,81.18a40.43,40.43,0,0,0,2.71-13.43c0-5.44-2-8.16-5.95-8.16H257.5l-.26,0c-3.38.74-7.41,4.13-11.78,10A59.87,59.87,0,0,0,237,83.73c-3.74,8.67-5.77,16.15-5.77,22.27,0,3.91,1.35,6,3.91,6m-90.42-23h.1c5.85-.54,12.27-3.9,19.26-10V78.8a30.72,30.72,0,0,0,6.12-7.48c2.21-3.4,3.4-6.46,3.4-9,0-1.7-1.36-2.72-4.08-2.72-4.25,0-9.52,3.91-15.64,11.56-5.06,6.12-8.32,11.56-10.16,16.31a1.08,1.08,0,0,0,1,1.47m72.57,60.76q13,0,29.06-25.5a114.83,114.83,0,0,0,5.61-10.37c.08-.15.15-.31.22-.48a1.08,1.08,0,0,0-1-1.49,1,1,0,0,0-.45.1c-15.6,7.25-27.92,15.58-36.68,25.16-2.73,2.89-4.08,5.61-4.08,8,0,3.06,2.55,4.59,7.31,4.59m130,2.38c11.89,0,21.75-8.43,29.43-25.43a1.08,1.08,0,0,0-1-1.53,1.13,1.13,0,0,0-.36.06c-3,1-6.45,2.2-10.57,3.26l-.06,0c-3,1-7.59,2.36-13.32,4.54l-.16.08a30.93,30.93,0,0,0-7.57,5.91c-2.72,2.89-4.25,5.61-4.25,8.33,0,3.23,2.72,4.76,7.82,4.76M371.43,3.4c-5,0-10.17,2-15.78,6-15.47,11-29.82,33.63-43.87,69.08-1.25,3.23-2.44,6.43-3.55,9.54-3.53,6.88-7.47,13.93-13.3,18.48a11.9,11.9,0,0,1-6.29,2.44c-1.61,0-1.61-.48-1.61-1.44,0-2.2,1.11-8,8.56-22.29l14.46-28.07,1.34-2.6-2.07-2.06-.34-.34-2.45-2.45-2.78,2.08c-3,2.24-4.74,2.88-5.58,3.05l-.42-.62h-5.1l-1.11,2.18-12.75,25c-.78,1.48-1.49,3-2.16,4.6a41.12,41.12,0,0,1-13.56,14.7c1.39-5.61,2.79-11.17,4.27-16.76,3.58-12.43,7.08-18,9.42-20.57A8.84,8.84,0,0,1,280.51,62c5.73-1,6.36-4.51,6.36-6,0-3.61-2.5-6-6.22-6-4.25,0-8.27,3.08-12.47,9.75a11,11,0,0,0-1.29-1.86c-2.25-2.64-5.51-4-9.69-4-9.72,0-18.73,5.33-26.81,15.84a54.71,54.71,0,0,0-9.24,17.38,72.88,72.88,0,0,1-10.64,13.34c-5.18,5.18-9.07,7.49-12.89,7.66v-.24c0-5.41,4.33-11.5,7.8-16.4.45-.62.88-1.23,1.29-1.81,12.58-16.47,14.2-22.27,14.2-25.48,0-2.18-.92-9.27-12.67-9.27-4.14,0-8.92.2-12.57.39a17.34,17.34,0,0,0,.25-2.68c0-8.82-5.74-9.27-6.89-9.27-3.91,0-8.08,2.57-8.08,9.78a12.54,12.54,0,0,0,3.73,9.31A87.16,87.16,0,0,1,181.55,73V73A89.52,89.52,0,0,1,177,83.12c-5.72,10.74-10.55,16.32-12.92,18.69C159.82,106.09,154,109,149.59,109c-1.28,0-4.67,0-4.67-8.24a23.82,23.82,0,0,1,1-6.68c8.44-.79,16.48-5,23.91-12.63,6.05-6,9.13-12.14,9.13-18.09A9.06,9.06,0,0,0,175,55.6c-2.15-1.5-5-2.22-8.77-2.22-9.11,0-17.78,5.21-25.77,15.48-7.33,9.53-11,18.93-11,28,0,6.92,1.33,12,4.07,15.62,3.15,4.13,8.1,6.23,14.72,6.23a31.31,31.31,0,0,0,21.45-9.26c7.27-6.6,11.44-14,14.77-20.4a92.75,92.75,0,0,0,6-12.91,102.09,102.09,0,0,0,3.44-11.32c3.09-.16,7-.34,10-.34h.4a34.79,34.79,0,0,1-4.44,7C194,79.12,190.51,84,189.16,86.26,185.06,93,183,99.16,183,104.64c0,8.27,5.17,13,14.2,13,6.28,0,12.67-3.2,19-9.5,1.25-1.25,2.47-2.53,3.63-3.84a17.84,17.84,0,0,0,3.15,7.83,12.86,12.86,0,0,0,7.51,4.76q-3,1.83-5.92,3.8c-13.54,9-20.12,16.9-20.12,24.06,0,3.09,1.28,10.29,13.18,10.29a38.65,38.65,0,0,0,12-2.25c14.67-4.89,24.62-16.39,28.8-33.26l1.83-7.35a41.22,41.22,0,0,0,13-7.7c.77,8.93,6.31,14.18,15.12,14.18a21,21,0,0,0,11.92-4.13,125.15,125.15,0,0,0-3.85,28.52c0,15.72,6.12,25.41,16.38,25.92l.65,0c7.3,0,13.91-5.29,18.6-14.88.51-1.06,1-2.16,1.46-3.3a9.89,9.89,0,0,0,3.09,4.05c2.33,1.81,5.6,2.73,9.72,2.73a37.12,37.12,0,0,0,17.86-4.55c14.64-7.7,21.31-17.76,26.55-30.44,15.93-7.19,27.93-19,35.7-35.29l.05-.12.05-.12a5.06,5.06,0,0,0-.32-4.89,4.5,4.5,0,0,0-3.73-2A4.93,4.93,0,0,0,418,83.3c-5.61,11.48-13.31,20.21-23.46,26.54.33-1.5.62-2.92.88-4.28v-.12c.24-1.51.46-3,.68-4.54.39-2.73.8-5.56,1.33-8.23l0-.08V92.5A53.31,53.31,0,0,1,404,74C407.68,67.76,412,64,417.28,62.4h.05c6-1.88,6.89-5.22,6.89-7a5.56,5.56,0,0,0-5.87-5.87c-2.51,0-5.6,1.41-9.2,4.2-6.63,4.81-14.91,14.88-24.59,29.93-15,23.09-20,24.29-20.48,24.35H364a4.62,4.62,0,0,1-.14-1.27c0-5.52,3.35-13,9.95-22.3,8.29-11.25,12.15-19,12.15-24.45a8.29,8.29,0,0,0-3.06-6.81A11.33,11.33,0,0,0,375.68,51a29.14,29.14,0,0,0-4.08.37l-.43.08a17.05,17.05,0,0,0-6.11,2.82l0,0,0,0c-2.67,1.94-4.19,4.24-4.51,6.82l-.35,2.81,2.53,1.27.34.17.85.42h3q-.69,1.1-1.59,2.4c-5.55,8-9.44,13.8-10.67,15.85l0,0v0a54,54,0,0,0-4,8.45,37.36,37.36,0,0,1-5.35,6l0,0,0,0c-5,4.56-8.95,6.29-14.47,6.33-2.57-3.55-5.38-4.85-7.68-5.21q1.8-4.93,3.85-10.21c38.09-35.28,56.61-59.76,56.61-74.82,0-7.19-4.37-11.31-12-11.31ZM334.8,69.1c3.82-9.1,8-18,12.62-26.49,14.22-26.95,22.36-29.85,25.2-29.85a2.71,2.71,0,0,1,.88.11,3.63,3.63,0,0,1,.22,1.5c0,7.48-7,23-38.92,54.73Zm-77-5.51h.88c.78,0,1.95,0,1.95,4.16a35.56,35.56,0,0,1-2.45,12,82.9,82.9,0,0,1-10.17,17.58l0,0,0,0c-6.39,8.76-10.55,10.44-12.61,10.59a7.2,7.2,0,0,1-.21-1.94c0-5.34,1.83-12.3,5.45-20.69v0l0,0a55.92,55.92,0,0,1,7.94-13.15l0,0,0,0c4.79-6.45,7.86-8,9.16-8.41ZM150.05,83.44a72.65,72.65,0,0,1,6.87-9.75l0,0,0,0c7.13-8.91,11-10,12.44-10.06a17.53,17.53,0,0,1-2.6,5.55l0,0,0,0a26.27,26.27,0,0,1-5.29,6.51L160,76.94v.17a41.3,41.3,0,0,1-10,6.33Zm212.37,34.38c5.6,0,11.35-3.57,17.58-10.9,0,.1-.07.2-.1.29l0,.05,0,.06c-1.24,3.85-2.47,6.94-3.54,9.67-.23.56-.44,1.11-.65,1.63-2.82.91-6.36,1.89-11,3h-.06l-.06,0c-8.77,2.48-13.4,3.9-15.91,5.24a41.49,41.49,0,0,0-11.11,7.93,61.91,61.91,0,0,0,.49-7.62,42.2,42.2,0,0,0-2-13.48,30,30,0,0,0,13-6,15.6,15.6,0,0,0,3,5.68c.13.15.27.3.41.44a14.18,14.18,0,0,0,10.05,4ZM314,159.29c-1.07,0-3.31,0-3.31-8.07,0-9.5,2.7-22.63,8.06-39.17a16,16,0,0,0,6.93,1.94c1.25,1.82,2.68,6.46,2.68,13.09a39.64,39.64,0,0,1-.14,4.15c-1.67,14.68-8.45,28.06-14.22,28.06Zm-100-14.14v-.05c0-.62.29-2.38,3-5.25l0,0,0,0c6.72-7.35,15.93-14.15,27.45-20.27-.62,1.08-1.14,1.94-1.51,2.55-12.28,19.5-20.74,23.6-25.66,23.6a6.85,6.85,0,0,1-3.31-.54Zm152-12.87c1.42-.37,2.76-.75,4-1.13-6.35,11.23-14,16.92-22.68,16.92-2.64,0-3.59-.49-3.81-.63a.53.53,0,0,1,0-.13c0-1.48,1.06-3.36,3.16-5.59a26.33,26.33,0,0,1,6.45-5.06c4.15-1.58,7.63-2.7,10.44-3.6l2.41-.78Z" transform="translate(-1.94 -2.21)"/></svg>